<?xml version="1.0" encoding="UTF-8" standalone="no"?>
<!-- Created with Inkscape (http://www.inkscape.org/) -->

<svg
   width="124.58902mm"
   height="124.6093mm"
   viewBox="0 0 124.58902 124.6093"
   version="1.1"
   id="svg1"
   xmlns="http://www.w3.org/2000/svg"
   xmlns:svg="http://www.w3.org/2000/svg">
  <defs
     id="defs1" />
  <g
     id="layer1"
     transform="translate(-38.664986,-0.08695092)">
    <circle
       style="fill:#ffffff;fill-opacity:1;stroke-width:0.264583"
       id="path1"
       cx="100.94356"
       cy="62.385994"
       r="62.315338" />
    <path
       style="fill:#ffff00;stroke-width:0.264583"
       d="M 62.315338,52.91114 Z"
       id="path2" />
    <path
       style="fill:#ff6600;stroke-width:0.215885"
       d="m 107.66158,19.466365 17.02419,-6.796624 -7.21816,8.525687 9.38045,4.142524 -9.8858,-1.276547 z"
       id="path3" />
    <path
       style="fill:#ffcc00;stroke-width:0.215885"
       d="m 100.74391,26.209307 c 0.52113,1.911318 1.04225,3.822635 1.56338,5.733953 -0.82664,-0.08074 -1.65326,-0.161476 -2.479886,-0.242214 -0.23335,0.195036 -0.4667,0.390074 -0.70005,0.585109 -0.039,0.423245 -0.078,0.846492 -0.11707,1.269734 1.343896,-0.289333 2.722316,0.0046 3.972776,0.505456 1.48329,0.555954 2.91275,1.31477 4.48648,1.571827 0.90752,0.143256 1.81046,-0.153587 2.71039,-0.265691 1.20713,-0.176497 2.41173,-0.37438 3.61724,-0.564605 0.37471,-0.238977 0.43507,-0.732748 0.5635,-1.132045 0.92115,-3.245475 1.84228,-6.490936 2.76342,-9.736407 -3.05302,-1.523069 -6.10604,-3.046132 -9.15906,-4.569197 -2.40702,2.281376 -4.81406,4.562752 -7.22112,6.84413 z"
       id="path4" />
    <path
       style="fill:#ffcc00;stroke-width:0.215885"
       d="m 114.75308,31.60394 1.36638,-4.424992 0.56848,0.100234 c 0,0 -4.566,-2.360411 0.28422,0.05012 4.85022,2.410541 -0.29178,4.147891 -0.29178,4.147891 z"
       id="path5" />
    <rect
       style="fill:#ff6600;fill-opacity:1;stroke-width:0.215885"
       id="rect5"
       width="4.6178718"
       height="3.0633595"
       x="114.88998"
       y="3.5387592"
       transform="rotate(10)" />
    <path
       style="fill:#ffcc00;fill-opacity:1;stroke-width:0.215885"
       d="m 106.34918,26.078303 -3.42905,-2.159937 -1.20917,-3.945951 0.073,6.23411 3.79306,1.757539 z"
       id="path6" />
    <path
       style="fill:#28220b;fill-opacity:1;stroke-width:0.264583"
       d="M 61.039877,60.74611 96.752761,53.45776"
       id="path7" />
    <path
       style="fill:none;fill-opacity:1;stroke:#000000;stroke-width:0.215885;stroke-opacity:1"
       d="m 111.27611,24.257478 -2.33956,2.464797 -2.18722,-0.269019 -0.0448,-1.407689 1.46712,-1.879856"
       id="path9" />
    <path
       style="fill:none;fill-opacity:1;stroke:#000000;stroke-width:0.215885;stroke-opacity:1"
       d="m 105.8882,21.836576 -1.76236,2.099972 0.12027,1.187694 1.32995,-0.27097 1.77795,-1.98058"
       id="path10" />
    <path
       style="fill:none;fill-opacity:1;stroke:#000000;stroke-width:0.215885;stroke-opacity:1"
       d="m 110.01999,20.426569 c 0.45751,0.31397 1.51921,1.356592 1.51921,1.356592 l 0.4091,1.627444"
       id="path11" />
    <path
       style="fill:none;fill-opacity:1;stroke:#000000;stroke-width:0.215885;stroke-opacity:1"
       d="m 107.04448,20.057438 1.83611,-0.648313"
       id="path12" />
    <path
       style="fill:none;fill-opacity:1;stroke:#000000;stroke-width:0.215885;stroke-opacity:1"
       d="m 101.95324,28.012775 0.96238,2.852586 0.66652,1.20624 2.25369,-0.108084 3.23942,-0.711938 1.80245,-1.704078"
       id="path13" />
    <path
       style="fill:none;fill-opacity:1;stroke:#000000;stroke-width:0.215885;stroke-opacity:1"
       d="m 109.54988,28.645706 1.63909,1.299968 0.59776,1.388523"
       id="path14" />
    <path
       style="fill:#ffcc00;fill-opacity:1;stroke:none;stroke-width:0.215885;stroke-opacity:1"
       d="m 103.22083,33.847598 c -2.07359,0.956381 -5.585792,2.592275 -5.585792,2.592275 l 4.713042,4.019437 2.46719,-6.097272 z"
       id="path15" />
    <path
       style="fill:#ffcc00;fill-opacity:1;stroke:none;stroke-width:0.215885;stroke-opacity:1"
       d="m 92.019173,34.730552 c -2.002176,-0.260632 -4.119689,-0.08118 -5.971483,0.877486 -2.100706,1.068784 -3.935331,2.858122 -4.887676,5.132062 -1.04276,2.41837 -1.300682,5.12733 -1.07776,7.72841 0.263597,3.01664 1.151121,5.92257 2.308022,8.66234 1.350436,3.12932 3.254617,6.03128 5.791163,8.20025 2.319386,2.01662 4.855673,3.73731 7.443911,5.34577 0.817041,0.50407 1.642695,0.9926 2.47103,1.47606 3.00553,-0.20305 6.01106,-0.40608 9.01659,-0.60911 -0.75744,-1.41621 -1.35416,-2.93981 -2.29528,-4.23623 -0.91193,-1.40727 -1.88344,-2.84608 -2.22827,-4.55308 -0.22241,-1.09435 -0.0542,-2.29255 0.52434,-3.25581 0.90006,-1.74923 2.14898,-3.25978 3.35539,-4.77899 1.48859,-1.82324 3.084,-3.55002 4.5106,-5.42884 0.1922,-0.29761 0.1102,-0.68946 -0.0827,-0.95336 -0.49241,-0.88338 -1.24189,-1.5522 -1.89286,-2.29722 -1.27385,-1.37533 -2.46419,-2.83355 -3.7155,-4.23114 -1.31743,-1.45317 -2.77214,-2.77424 -4.38566,-3.85099 -1.023256,-0.715254 -2.046526,-1.430499 -3.069769,-2.145753 -1.932809,-0.388633 -3.870151,-0.753794 -5.81415,-1.081848 z"
       id="path16" />
    <path
       style="fill:#ffcc00;fill-opacity:1;stroke:none;stroke-width:0.215885;stroke-opacity:1"
       d="m 130.37248,61.79764 c -0.0716,0.0557 0.0105,0.0308 0.0146,-0.002 z m -0.1204,0.25552 c -1.06563,1.23005 -2.01899,2.56065 -3.03192,3.83789 -1.25121,1.62174 -2.50242,3.2435 -3.75363,4.86524 -1.19896,3.09164 -2.16031,6.27277 -3.20676,9.42086 -0.0865,-0.87847 -0.55173,-1.65331 -1.14774,-2.24097 -0.75263,-0.70352 -1.48033,-1.43684 -2.2332,-2.14062 -2.85979,-2.69565 -5.84874,-5.23256 -8.79577,-7.82014 -0.55043,-0.22255 -1.16246,-0.3308 -1.6272,-0.73517 -0.78562,-0.43592 -1.54508,-0.97144 -2.43238,-1.15767 -0.21374,0.30129 -0.60427,0.20908 -0.90497,0.30086 -1.88006,0.34247 -3.759406,0.68969 -5.638133,1.04117 0.215343,2.23158 0.667353,4.43187 1.339427,6.54972 1.315826,1.62126 3.094276,2.70672 4.867596,3.68493 4.88775,2.69714 10.20329,4.48856 15.63273,5.59318 0.0682,0.25825 -0.23433,0.36768 -0.33399,0.55795 -0.34377,0.40742 -0.10382,1.15595 0.41219,1.21465 0.4502,0.0983 0.8213,-0.28052 1.11351,-0.59499 0.68475,-0.69417 1.2762,-1.48188 1.9333,-2.20412 2.06666,-2.42014 3.89253,-5.10057 5.17538,-8.06755 1.5307,-3.34329 2.94162,-6.7435 4.39914,-10.1214 0.0321,-0.21085 0.295,-0.40069 0.15298,-0.61823 -0.51552,-0.4123 -1.08529,-0.74031 -1.62123,-1.12111 -0.19316,0.13043 -0.13083,-0.27209 -0.29931,-0.24449 z m -6.73825,8.38138 c -0.12595,0.24787 -0.25182,0.49575 -0.37773,0.74363 0.24018,-0.28225 0.40269,-0.62871 0.51018,-0.98702 -0.0442,0.0812 -0.0883,0.16226 -0.13247,0.24339 z"
       id="path17" />
    <path
       style="fill:#ffcc00;fill-opacity:1;stroke:none;stroke-width:0.215885;stroke-opacity:1"
       d="m 88.259835,64.17494 c -1.195442,0.30187 -2.407344,0.68781 -3.642987,0.58153 -2.138264,-0.0439 -4.285843,-0.17493 -6.421254,0.11175 -3.256161,0.32966 -6.498293,0.83121 -9.757644,1.11986 -0.381357,0.0611 -0.559746,0.58254 -0.386051,0.91556 0.57638,2.21821 0.999993,4.48147 1.299899,6.76506 0.353052,2.61547 0.620812,5.24453 0.950468,7.86377 0.161134,1.364 0.322266,2.72796 0.483396,4.09195 0.695862,0.34465 1.400576,0.66965 2.110916,0.98073 0.800528,-1.29131 1.012767,-2.84025 1.302045,-4.31305 0.504336,-2.79992 0.293453,-5.72195 -0.599488,-8.3805 -0.544559,-1.74378 -1.276459,-3.41018 -2.047543,-5.04881 0.844768,0.79348 1.534381,1.82942 2.612583,2.29793 1.786951,0.76492 3.73412,0.96214 5.641004,1.19782 4.308334,0.40506 8.647906,0.0908 12.971546,-0.01 1.545419,-0.0377 3.094654,-0.12996 4.636927,-0.0404 0.433416,0.0856 0.869332,0.16243 1.310722,0.19395 0.1617,-0.19491 -0.10816,-0.37718 -0.21573,-0.51216 -0.791659,-0.80447 -1.951692,-0.9537 -2.840513,-1.59912 -1.153311,-0.76175 -2.24187,-1.62427 -3.364205,-2.43413 -0.619158,-0.45613 -1.234878,-0.91735 -1.851144,-1.37776 -0.21289,-0.34378 -0.329888,-0.85378 -0.767334,-0.9461 -0.355107,-0.0883 -0.766187,-0.088 -1.040173,-0.37458 -0.169555,-0.32838 0.02557,-0.78465 -0.25596,-1.06044 -0.04253,-0.0116 -0.08559,-0.0192 -0.129467,-0.0228 z"
       id="path18" />
    <path
       style="fill:#ffcc00;fill-opacity:1;stroke:none;stroke-width:0.250692;stroke-opacity:1"
       d="m 84.537975,36.50733 c 0,0 -3.473543,-0.612478 -4.495595,-0.419433 -1.022047,0.19304 -5.709135,0.859619 -5.709135,0.859619 0,0 0.260831,-0.07842 1.354597,-1.378602 1.093768,-1.300181 1.093768,-1.300181 1.093768,-1.300181 l 3.674553,-8.932446 4.609864,-0.929039 3.717856,-3.574733 4.609865,-0.929041 -3.021214,-1.776927 -2.248987,0.847649 -3.612218,-2.627656 -2.057495,-0.238372 -0.635934,1.505332 -2.022826,0.265422 -0.375099,1.426902 -1.88177,0.165876 -0.212771,1.206685 -2.022826,0.265422 0.322284,1.674291 0.625673,1.354526 c 0,0 -0.854213,1.342423 -1.78565,2.422389 -0.931436,1.079967 -5.248177,4.549103 -7.033825,6.971491 -1.785647,2.422386 -4.441276,7.677466 -4.441276,7.677466 0,0 -0.282112,0.19909 1.535826,0.39522 1.817939,0.19613 5.762703,1.63823 5.762703,1.63823 l 7.644476,1.47235 5.158312,0.16302 z"
       id="path19" />
    <path
       style="fill:#ffcc00;fill-opacity:1;stroke:none;stroke-width:0.250692;stroke-opacity:1"
       d="m 103.91268,36.174631 c -0.5105,0.135911 -0.88393,0.619687 -0.92257,1.144405 -0.0789,0.28896 -0.39865,0.33785 -0.64878,0.28168 -0.23463,-0.0269 -0.48783,0.0864 -0.55257,0.33071 -0.12555,0.399874 0.21031,0.728534 0.29415,1.097504 0.31937,0.99707 0.32944,2.05722 0.52861,3.07969 0.13066,0.7698 0.19088,1.57317 0.51584,2.29006 0.41384,0.67795 1.19307,0.96296 1.82898,1.37689 1.26628,0.744 2.53258,1.48799 3.79886,2.23199 4.45828,0.77372 8.93695,1.42167 13.40783,2.11708 -2.92267,0.011 -5.84542,0.0158 -8.76802,0.0458 -2.58009,0.99601 -4.78181,2.71892 -7.02142,4.30649 -0.75708,0.53741 -1.68781,0.94403 -2.13406,1.81221 -0.52909,1.09535 -0.80324,2.29105 -1.28492,3.40619 -0.24381,0.65547 -0.48762,1.31094 -0.73144,1.9664 1.23766,1.32415 2.49666,2.62776 3.75275,3.93411 2.29822,0.17498 4.59849,0.32113 6.89858,0.46951 0.51193,-0.40004 0.93664,-0.89602 1.39563,-1.35333 0.18286,-0.61092 -0.32769,-1.36084 -0.97517,-1.32722 -0.41721,0.11104 -0.71021,0.45887 -1.06898,0.67758 -0.13127,0.15536 -0.50015,0.30549 -0.55405,0.0105 -0.0227,-0.34334 0.29728,-0.57426 0.37353,-0.89263 0.10949,-0.25468 0.21905,-0.50937 0.32859,-0.76405 -0.12678,-0.38501 -0.39077,-0.70024 -0.65095,-1.00126 -0.26352,0.0383 -0.43331,0.30174 -0.46063,0.55252 -0.39563,0.71508 -0.92195,1.34449 -1.4587,1.95519 -1.01787,-0.0709 -1.83993,-1.09925 -1.71456,-2.11487 -0.005,-1.01755 -0.0106,-2.0351 -0.0159,-3.05265 0.38281,-0.56717 1.11352,-0.63866 1.72056,-0.78812 4.42043,-1.04426 8.86446,-2.03179 13.17681,-3.48257 2.29983,-1.22925 4.23765,-3.08125 5.72486,-5.22228 0.10917,-0.68422 -0.41929,-1.323 -1.04415,-1.52136 -6.39906,-3.21524 -12.77785,-6.52061 -19.49822,-9.01949 -0.79839,-0.32281 -1.6343,-0.57105 -2.38967,-0.988544 -0.61902,-0.47433 -1.1172,-1.096653 -1.75388,-1.544793 -0.032,-0.0066 -0.0645,-0.0093 -0.0969,-0.01306 z"
       id="path20" />
    <path
       style="fill:#ff6600;fill-opacity:1;stroke:#000000;stroke-width:0.257213;stroke-opacity:1"
       d="m 97.581195,35.339745 c 1.987139,2.285921 6.329155,1.64388 8.438875,2.191831 2.10974,0.547964 6.14865,2.667774 6.14865,2.667774 l 1.14237,8.11951 -6.49519,6.59683 c 0,0 -1.78541,0.74093 -7.280936,-1.45978 -5.495538,-2.2007 -19.288418,-3.22512 -19.851236,-4.20415 -0.562822,-0.97902 -0.04461,-7.04613 -0.04461,-7.04613 0,0 -0.625227,0.41762 1.016397,-2.63609 1.641627,-3.053727 5.064204,-4.737674 7.176153,-5.245068 2.111947,-0.507392 6.479622,0.790616 6.479622,0.790616 z"
       id="path21" />
    <path
       style="fill:#ffff00;fill-opacity:1;stroke:#000000;stroke-width:0.250692;stroke-opacity:1"
       d="m 86.026782,63.39103 c 4.502217,2.20152 5.936465,2.98228 9.294191,3.7503 3.357721,0.76802 8.085087,-2.26948 8.085087,-2.26948 l 6.9829,2.99085 c 0,0 0.3655,2.87975 -1.97925,5.28161 -2.34472,2.40189 -10.407526,2.5638 -10.407526,2.5638 l -1.103253,-2.65792 c 0,0 -11.502987,1.84277 -10.833213,0.0253 0.669778,-1.81741 0.75226,-4.26627 -0.362143,-5.87042 -1.114403,-1.60416 -5.217656,-4.08724 -5.217656,-4.08724 z"
       id="path22" />
    <rect
       style="fill:#000000;fill-opacity:1;stroke:none;stroke-width:0.254177;stroke-opacity:1"
       id="rect24"
       width="1.7466106"
       height="6.3152561"
       x="157.35316"
       y="-46.883949"
       transform="matrix(0.79682331,0.6042124,-0.59942268,0.80043267,0,0)" />
    <rect
       style="fill:#000000;fill-opacity:1;stroke:none;stroke-width:0.254175;stroke-opacity:1"
       id="rect25"
       width="1.7448006"
       height="6.3217378"
       x="154.15802"
       y="-14.162339"
       transform="matrix(0.90552046,0.4243026,-0.42094326,0.90708697,0,0)" />
    <rect
       style="fill:#000000;fill-opacity:1;stroke:none;stroke-width:0.254177;stroke-opacity:1"
       id="rect26"
       width="1.7466106"
       height="6.3152561"
       x="139.5042"
       y="-43.575298"
       transform="matrix(0.79682331,0.6042124,-0.59942268,0.80043267,0,0)" />
    <path
       style="fill:#ff6600;fill-opacity:1;stroke:none;stroke-width:0.250692;stroke-opacity:1"
       d="m 129.31064,62.57722 3.48818,-8.88662 6.81351,2.96097 c 0,0 1.80311,0.66986 5.14968,2.49165 3.34657,1.82178 8.36476,6.0498 8.36476,6.0498 l -2.18314,0.49484 -6.80236,-4.01475 -6.19611,-2.5002 -2.32246,0.29431 7.78862,4.36462 5.26668,4.79972 c 0,0 2.17199,0.55893 -1.31725,1.52729 -3.48924,0.96837 -5.57538,-5.03009 -6.84023,-5.78099 -1.26486,-0.7509 -5.19873,-3.20411 -5.19873,-3.20411 l -2.36368,1.51873 -0.74111,3.21251 z"
       id="path24" />
    <rect
       style="fill:#000000;fill-opacity:1;stroke:none;stroke-width:0.254177;stroke-opacity:1"
       id="rect27"
       width="1.7466106"
       height="6.3152561"
       x="-93.944168"
       y="-38.893829"
       transform="matrix(-0.79682331,-0.6042124,0.59942268,-0.80043267,0,0)" />
    <rect
       style="fill:#000000;fill-opacity:1;stroke:none;stroke-width:0.254175;stroke-opacity:1"
       id="rect28"
       width="1.7448006"
       height="6.3217378"
       x="-93.045441"
       y="-58.868469"
       transform="matrix(-0.90552046,-0.4243026,0.42094326,-0.90708697,0,0)" />
    <rect
       style="fill:#000000;fill-opacity:1;stroke:none;stroke-width:0.254177;stroke-opacity:1"
       id="rect29"
       width="1.7466106"
       height="6.3152561"
       x="-111.79314"
       y="-35.585175"
       transform="matrix(-0.79682331,-0.6042124,0.59942268,-0.80043267,0,0)" />
    <path
       style="fill:#ff6600;fill-opacity:1;stroke:none;stroke-width:0.250692;stroke-opacity:1"
       d="m 71.074541,83.8049 4.0275,-1.0494 -1.888968,4.76967 0.05346,5.64004 -5.270055,-1.80903 -7.927906,-4.56513 -9.053468,-5.11552 1.686118,-1.63822 7.468767,5.18801 6.576151,1.33551 1.945784,-2.12032 -7.693916,0.051 -4.916758,-5.79373 c 0,0 -0.767832,0.39246 0.639688,-1.64678 1.407518,-2.03926 7.152287,3.02071 7.152287,3.02071 l 3.704295,2.76465 z"
       id="path23" />
    <ellipse
       style="fill:#ffcc00;fill-opacity:1;stroke:#000000;stroke-width:0.250692;stroke-opacity:1"
       id="path29"
       cx="67.031624"
       cy="68.263107"
       rx="1.8851893"
       ry="1.8992165"
       transform="rotate(10)" />
    <ellipse
       style="fill:#ffcc00;fill-opacity:1;stroke:#000000;stroke-width:0.250692;stroke-opacity:1"
       id="circle29"
       cx="70.558754"
       cy="70.101059"
       rx="1.8851893"
       ry="1.8992165"
       transform="rotate(10)" />
    <ellipse
       style="fill:#ffcc00;fill-opacity:1;stroke:#000000;stroke-width:0.250692;stroke-opacity:1"
       id="circle30"
       cx="74.450752"
       cy="71.693954"
       rx="1.8851893"
       ry="1.8992165"
       transform="rotate(10)" />
    <ellipse
       style="fill:#ffcc00;fill-opacity:1;stroke:#000000;stroke-width:0.371995;stroke-opacity:1"
       id="circle31"
       cx="79.133324"
       cy="72.61293"
       rx="2.7973776"
       ry="2.8181922"
       transform="rotate(10)" />
    <ellipse
       style="fill:#ffcc00;fill-opacity:1;stroke:#000000;stroke-width:0.250692;stroke-opacity:1"
       id="circle32"
       cx="158.37209"
       cy="39.836178"
       rx="1.8851893"
       ry="1.8992165"
       transform="rotate(10)" />
    <ellipse
       style="fill:#ffcc00;fill-opacity:1;stroke:#000000;stroke-width:0.250692;stroke-opacity:1"
       id="circle33"
       cx="154.84496"
       cy="37.75317"
       rx="1.8851893"
       ry="1.8992165"
       transform="rotate(10)" />
    <ellipse
       style="fill:#ffcc00;fill-opacity:1;stroke:#000000;stroke-width:0.250692;stroke-opacity:1"
       id="circle34"
       cx="150.46645"
       cy="36.160275"
       rx="1.8851893"
       ry="1.8992165"
       transform="rotate(10)" />
    <ellipse
       style="fill:#ffcc00;fill-opacity:1;stroke:#000000;stroke-width:0.396256;stroke-opacity:1"
       id="circle35"
       cx="146.33119"
       cy="34.81245"
       rx="2.9798152"
       ry="3.0019875"
       transform="rotate(10)" />
    <path
       d="m 94.363974,83.48425 a 8.3815947,9.1104298 0 0 0 -7.330819,4.74183 l 3.219959,-0.61444 2.495971,2.89182 -1.256254,3.60753 -3.752225,0.71571 -1.744597,-2.02106 a 8.3815947,9.1104298 0 0 0 7.473446,8.82995 l -0.977718,-1.13223 1.256254,-3.60753 3.752226,-0.71624 2.496488,2.89182 -0.141077,0.40566 a 8.3815947,9.1104298 0 0 0 2.889742,-6.88227 8.3815947,9.1104298 0 0 0 -0.0506,-0.99012 l -0.12144,0.3483 -3.752222,0.71572 -2.495971,-2.8913 1.255737,-3.60753 2.293917,-0.4377 a 8.3815947,9.1104298 0 0 0 -5.510775,-2.24792 z"
       style="fill:#ffffff;stroke:#000000;stroke-width:0.264583;stroke-opacity:1"
       id="path52" />
    <circle
       style="fill:#ffff00;fill-opacity:1;stroke:none;stroke-width:0.264583;stroke-opacity:1"
       id="path36"
       cx="137.02086"
       cy="34.87249"
       r="4.7374234" />
    <ellipse
       style="fill:#ff6600;fill-opacity:1;stroke:none;stroke-width:0.264583;stroke-opacity:1"
       id="path37"
       cx="82.668594"
       cy="142.69907"
       rx="9.0193253"
       ry="4.5552149"
       transform="rotate(-30)" />
    <circle
       style="fill:#ff6600;fill-opacity:1;stroke:none;stroke-width:0.285673;stroke-opacity:1"
       id="path38"
       cx="53.503574"
       cy="55.578964"
       r="6.7872701" />
    <path
       style="fill:#2b0000;fill-opacity:1;stroke:#000000;stroke-width:0.264583;stroke-opacity:1"
       d="M 47.354025,52.98249 59.37979,58.72206"
       id="path39" />
    <path
       style="fill:#2b0000;fill-opacity:1;stroke:#000000;stroke-width:0.264583;stroke-opacity:1"
       d="M 56.100035,49.79384 50.360466,61.45519"
       id="path40" />
    <path
       style="fill:none;fill-opacity:1;stroke:#000000;stroke-width:0.251197;stroke-opacity:1"
       d="m 51.995846,49.24733 c 0,0 -1.915911,4.10013 1.186042,5.41217 3.101952,1.31204 5.747735,-2.70608 5.747735,-2.70608"
       id="path41" />
    <path
       style="fill:none;fill-opacity:1;stroke:#000000;stroke-width:0.241272;stroke-opacity:1"
       d="m 54.022655,62.10681 c 0,0 1.709943,-4.23815 -1.058538,-5.59436 -2.768481,-1.35621 -5.129833,2.79718 -5.129833,2.79718"
       id="path42" />
    <path
       style="fill:#ffffff;fill-opacity:1;stroke:#ffffff;stroke-width:0.264583;stroke-opacity:1"
       d="m 136.82907,86.45226 12.11104,-8.24582"
       id="path43" />
    <path
       style="fill:#ffffff;fill-opacity:1;stroke:#ffffff;stroke-width:0.264583;stroke-opacity:1"
       d="m 139.27705,81.29862 3.09218,4.3806"
       id="path44" />
    <path
       style="fill:#ffffff;fill-opacity:1;stroke:#ffffff;stroke-width:0.264583;stroke-opacity:1"
       d="m 144.55953,78.46412 3.09218,4.3806"
       id="path45" />
    <path
       style="fill:#ffffff;fill-opacity:1;stroke:#ffffff;stroke-width:0.264583;stroke-opacity:1"
       d="m 141.85387,79.75253 3.09218,4.3806"
       id="path46" />
    <path
       style="fill:none;fill-opacity:1;stroke:#000000;stroke-width:0.264583;stroke-opacity:1"
       d="m 139.94403,38.562514 c 0,-1.803773 -0.64421,-3.349863 -2.70566,-3.349863 -2.06146,0 -3.22102,3.221021 -3.22102,3.221021"
       id="path47" />
    <path
       style="fill:none;fill-opacity:1;stroke:#000000;stroke-width:0.265;stroke-dasharray:none;stroke-opacity:1"
       d="m 134.01803,31.093227 c 0,1.803773 0.64421,3.349863 2.70566,3.349863 2.06146,0 3.22102,-3.221021 3.22102,-3.221021"
       id="path48" />
    <path
       d="m 85.996009,92.80564 1.744597,2.02106 3.752225,-0.71571 1.256254,-3.60753 -2.495971,-2.89182 -3.219959,0.61444 a 8.3815947,9.1104298 0 0 0 -1.051098,4.36872 8.3815947,9.1104298 0 0 0 0.01395,0.21084 z"
       style="fill:#1a1a1a;stroke:#000000;stroke-width:0.264999"
       id="path58" />
    <path
       d="m 99.874749,85.73217 -2.293917,0.4377 -1.255737,3.60753 2.495971,2.8913 3.752224,-0.71572 0.12144,-0.3483 a 8.3815947,9.1104298 0 0 0 -2.819981,-5.87251 z"
       style="fill:#1a1a1a;stroke:#000000;stroke-width:0.264999"
       id="path54" />
    <path
       d="m 99.855628,99.47707 0.141077,-0.40566 -2.496488,-2.89182 -3.752226,0.71624 -1.256254,3.60753 0.977718,1.13223 a 8.3815947,9.1104298 0 0 0 0.894519,0.0698 8.3815947,9.1104298 0 0 0 5.491654,-2.22828 z"
       style="fill:#1a1a1a;stroke:#000000;stroke-width:0.264999"
       id="path56" />
    <path
       style="fill:#ffffff;fill-opacity:1;stroke:none;stroke-width:0.264999;stroke-dasharray:none;stroke-opacity:1"
       d="m 132.46564,65.84794 4.00859,-2.73312 c 0,0 -0.18221,-1.09326 0.36442,1.27546 0.54662,2.36871 1.09325,6.74171 0.36441,11.11472 -0.72883,4.37301 -12.7546,12.02577 -12.7546,12.02577 0,0 4.73742,-4.1908 6.74172,-7.28835 2.00429,-3.09754 1.27546,-14.39448 1.27546,-14.39448 z"
       id="path59" />
    <path
       style="fill:#ffffff;fill-opacity:1;stroke:none;stroke-width:0.264999;stroke-dasharray:none;stroke-opacity:1"
       d="m 61.937781,34.508067 -4.00859,-2.73312 c 0,0 0.18221,-1.09326 -0.36442,1.27546 -0.54662,2.36871 -1.09325,6.74171 -0.36441,11.114723 0.72883,4.37301 12.7546,12.02577 12.7546,12.02577 0,0 -4.73742,-4.1908 -6.74172,-7.28835 -2.00429,-3.09754 -1.27546,-14.394483 -1.27546,-14.394483 z"
       id="path60" />
    <path
       style="fill:#faffc6;fill-opacity:1;stroke:none;stroke-width:0.500787;stroke-dasharray:none;stroke-opacity:1"
       d="m 252.84369,204.22831 c -18.30271,-13.18064 -30.69631,-24.8551 -34.55819,-32.55298 -1.12749,-2.24741 -1.88824,-4.75855 -2.34788,-7.75 -0.96157,-6.25817 -0.82357,-23.41097 0.24277,-30.17533 1.19727,-7.59484 2.42165,-13 2.94479,-13 0.25019,0 3.64312,2.17723 7.53985,4.83828 l 7.08497,4.83829 0.011,17.28671 c 0.0119,18.7081 0.56716,24.80833 2.9379,32.27383 1.80067,5.67034 5.90212,11.03588 16.92235,22.13789 3.88989,3.91875 6.86018,7.11417 6.60066,7.10093 -0.25952,-0.0132 -3.5797,-2.26217 -7.37817,-4.99762 z"
       id="path145"
       transform="scale(0.26458333)" />
    <path
       style="fill:#ffffff;fill-opacity:1;stroke:none;stroke-width:0.500787;stroke-dasharray:none;stroke-opacity:1"
       d="m 480.80816,321.125 c 10.94552,-11.26837 15.3967,-17.04621 17.15644,-22.26991 2.44579,-7.26022 3.81392,-24.12245 3.25596,-40.12973 l -0.34071,-9.77464 7.52009,-5.09996 7.52009,-5.09995 0.76795,3.37642 c 3.23366,14.21731 3.78426,37.38401 1.07537,45.24661 -2.74009,7.95318 -16.79807,21.75901 -36.23702,35.58705 -3.31621,2.35901 -6.17306,4.28911 -6.34857,4.28911 -0.17551,0 2.35817,-2.75625 5.6304,-6.125 z"
       id="path146"
       transform="scale(0.26458333)" />
    <path
       id="path147"
       style="fill:#ffffff;fill-opacity:1;stroke:#000000;stroke-width:0.500787;stroke-dasharray:none;stroke-opacity:1"
       transform="scale(0.26458333)"
       d="m 382.04297,0.58007813 c -3.11745,-0.009351 -6.23004,0.0437053 -9.33789,0.15820313 C 329.19523,2.341251 286.80875,16.008553 250.54102,40.335938 225.24175,57.305991 203.13049,79.418213 186.08985,104.79102 164.45287,137.00755 151.10208,174.52653 147.22656,214 c -1.109,11.29551 -1.12172,32.11991 -0.0254,43.19922 2.94267,29.73565 10.39211,56.25628 23.00391,81.90039 11.9456,24.28947 25.58397,43.41343 44.53516,62.44727 18.9167,18.99919 37.90935,32.78309 61.25976,44.45898 30.15045,15.0761 60.56422,23.02074 95.5,24.94727 5.20734,0.28716 24.23482,-0.16937 30.50001,-0.73242 18.85809,-1.69478 38.60172,-5.90718 56.23437,-11.99805 72.2299,-24.95042 128.03473,-83.6252 149.27736,-156.95312 C 623.75804,245.1885 618.48681,184.63025 592.81446,132.4375 580.80418,108.0202 566.90158,88.577357 547.78712,69.462892 505.81248,27.488257 450.81539,3.3385997 391.40625,0.79492189 388.28276,0.66118566 385.16043,0.58942869 382.04297,0.58007813 Z M 471.26954,47.853516 c 0.11756,0.117556 -5.75043,7.26146 -13.04102,15.875 -7.29059,8.61354 -13.35043,15.815607 -13.4668,16.003907 -0.11638,0.188295 7.66501,3.812567 17.29297,8.054687 9.62797,4.24212 17.0753,7.780662 16.54883,7.863282 -0.78738,0.123555 -27.95559,-3.199208 -34.12695,-4.173828 l -1.77344,-0.279297 -0.88867,5.572265 c -0.4887,3.06506 -0.81586,5.629118 -0.72656,5.699218 0.0893,0.0701 1.35598,0.76748 2.81445,1.54883 6.0539,3.24325 7.78154,7.51534 4.4043,10.89258 -2.22323,2.22323 -6.53501,4.33984 -8.8418,4.33984 -4.62514,0 -4.72903,0.094 -6.27539,5.63086 -0.77162,2.76284 -1.74943,5.43792 -2.17188,5.94531 -0.6043,0.7258 -3.11319,1.29493 -11.76757,2.66993 -12.21861,1.94128 -13.67786,1.90236 -20.17969,-0.54493 -3.56182,-1.34066 -3.52997,-1.35428 -4.59766,1.88086 -0.64828,1.9643 -0.64162,1.98541 1.3125,3.9043 1.56965,1.54134 3.0539,2.28789 7.38281,3.7207 5.32282,1.76178 17.27589,7.1049 19.9375,8.91211 0.74512,0.50593 4.68262,2.3961 8.75,4.19922 18.87943,8.36946 52.32564,25.08064 53.75782,26.85938 1.63245,2.02746 1.13959,3.9392 -2.03907,7.91406 -4.9351,6.17125 -12.2294,12.45847 -17.57421,15.14648 -4.1589,2.09159 -20.82673,6.72538 -44.10938,12.26172 -7.20666,1.71366 -11.30407,2.93038 -12.17969,3.61914 l -1.31836,1.03907 0.25196,6.91211 c 0.28767,7.85747 0.86617,9.48378 3.96679,11.16406 1.80796,0.97976 1.82319,0.97976 2.91407,0 0.98618,-0.88573 3.86872,-4.97831 5.25976,-7.4668 0.89269,-1.59697 1.59377,-1.42886 3.01758,0.72266 l 1.35937,2.05468 -1.39257,2.91602 c -0.76646,1.60362 -1.31022,3.16893 -1.20703,3.47852 0.11017,0.3305 1.20435,-0.16137 2.65039,-1.18946 2.91655,-2.0736 3.91651,-2.16746 5.56054,-0.52343 2.05714,2.05714 1.68699,4.1074 -1.26562,7.01562 l -2.49219,2.45508 -13.2168,-0.88281 -13.21484,-0.88282 -5.5,-5.59179 c -3.02448,-3.0747 -5.97125,-6.15235 -6.54883,-6.83985 l -1.05078,-1.25 0.30273,1.5 c 0.5172,2.57085 2.21612,7.56717 2.85352,8.38867 0.3347,0.43138 6.45938,3.2663 13.60938,6.30079 l 13,5.51757 v 3.93555 3.9375 l 9.75,8.66797 c 17.55139,15.60346 24.80559,22.74045 26.34375,25.91797 l 1.37109,2.83398 5.4375,-16.5 c 5.83221,-17.69705 6.65202,-19.9192 7.22656,-19.59179 0.20371,0.11609 5.0961,-5.92661 10.8711,-13.42774 7.8174,-10.154 10.50755,-14.00064 10.53125,-15.05859 0.0261,-1.16967 12.33423,-33.44104 13.01953,-34.13672 0.11628,-0.11804 0.9775,0.15105 1.91406,0.59766 l 1.70313,0.8125 6.54687,-8.72266 c 3.6003,-4.79733 6.73611,-8.72266 6.96875,-8.72266 0.23263,0 1.52334,0.82503 2.86914,1.83399 1.34579,1.00895 2.52314,1.89038 2.61524,1.95898 0.0921,0.0686 -2.57512,3.76663 -5.92579,8.2168 -3.35067,4.45016 -5.89957,8.26398 -5.66601,8.47461 0.23355,0.21063 5.03633,2.35612 10.67383,4.76758 5.6375,2.41147 11.53791,5.02869 13.11132,5.8164 1.57341,0.78771 3.04941,1.43164 3.28125,1.43164 0.23184,0 1.5768,-2.53125 2.98829,-5.625 1.41148,-3.09375 3.58677,-7.80618 4.83398,-10.47265 l 2.26758,-4.84766 3.13476,1.44141 c 1.85636,0.85386 3.06917,1.70863 2.97657,2.09765 -0.086,0.3612 -2.28354,5.24685 -4.88282,10.85742 -2.59928,5.61057 -4.66655,10.23846 -4.59375,10.28516 0.0728,0.0467 1.25782,0.72561 2.63282,1.50781 2.72207,1.54851 9.3282,5.94372 13.85937,9.22071 l 2.85742,2.0664 6.89258,-9.24609 c 3.95283,-5.30326 7.1569,-9.15427 7.51563,-9.03125 1.076,0.36897 5.08497,3.47315 5.10547,3.95312 0.0107,0.25138 -2.9181,4.37108 -6.50782,9.1543 -3.58971,4.78322 -6.63785,8.98456 -6.77343,9.33789 -0.13938,0.36321 0.92725,1.54741 2.45312,2.72461 1.48435,1.14518 3.08047,2.50415 3.54688,3.01953 0.81743,0.90325 0.71929,0.96572 -2.73633,1.7461 -1.9717,0.44527 -4.12757,0.81054 -4.79102,0.81054 -1.03765,0 -1.1347,0.13485 -0.68945,0.9668 0.28467,0.53192 0.51758,1.89365 0.51758,3.02539 0,3.37402 -1.9431,6.17572 -4.82032,6.94922 -1.16626,0.31353 -1.4014,0.62039 -1.27539,1.67187 0.1961,1.63634 -1.10955,2.59316 -5.33203,3.90235 -4.16107,1.29016 -6.76479,1.23722 -9.82226,-0.19922 -3.52055,-1.654 -7.10658,-5.4802 -12.21875,-13.03906 -2.42768,-3.58957 -4.83398,-6.88702 -5.34766,-7.32618 -2.10116,-1.79638 -10.54209,-6.6294 -13.14062,-7.52343 -1.73227,-0.59599 -3.56873,-1.72548 -4.85743,-2.99024 -2.35766,-2.31387 -1.90549,-2.39213 -7.65039,1.32422 l -3.33008,2.1543 -1.39648,6.09375 -1.39453,6.09375 -1.34961,-1.29297 -1.34961,-1.29297 -2.69922,6.36719 c -5.50778,12.99685 -12.67907,29.01265 -15.10937,33.74609 -4.65311,9.06271 -11.39369,18.48817 -21.00196,29.36328 -4.66161,5.27624 -6.11243,6.14042 -8.11523,4.82813 -1.48865,-0.97539 -1.80163,-3.77444 -0.53906,-4.82227 0.4125,-0.34235 0.75,-0.79095 0.75,-0.99804 0,-0.20709 -3.54375,-1.22312 -7.875,-2.25586 -21.39525,-5.10147 -44.42246,-14.517 -58.62305,-23.97071 l -4.75391,-3.16406 -4.5293,0.25781 -4.52734,0.25782 -2.05078,-4.9375 c -1.82072,-4.38728 -2.18088,-4.92701 -3.2207,-4.82227 -0.64382,0.0649 -4.65743,0.58252 -8.91993,1.14844 -10.21133,1.35573 -25.98484,1.84716 -28.75,0.89648 -1.85258,-0.63692 -1.99671,-0.82096 -1.94921,-2.48633 l 0.0527,-1.79687 -12.05273,-0.27148 c -16.46838,-0.36966 -27.4655,-2.1372 -34.01368,-5.46875 -1.07982,-0.54939 -3.20009,-2.15498 -4.71093,-3.56836 -1.51085,-1.41338 -2.60968,-2.23282 -2.44141,-1.82032 0.16827,0.4125 1.33776,3.20686 2.59766,6.20899 5.41198,12.89588 7.01399,20.81101 6.58593,32.54101 -0.16057,4.4 -0.43856,8.74758 -0.61718,9.66016 l -0.32422,1.6582 1.81054,-0.33984 c 0.99648,-0.18692 1.8125,-0.206 1.8125,-0.041 0,0.16481 -1.575,4.24342 -3.5,9.0625 l -3.5,8.76172 v 10.74414 c 0,5.90922 -0.12955,10.74414 -0.28906,10.74414 -0.15951,0 -2.20361,-0.675 -4.54101,-1.5 -2.3374,-0.825 -4.52065,-1.5 -4.85157,-1.5 -0.33092,0 -2.94903,3.15 -5.81836,7 -2.86934,3.85 -5.33584,6.98891 -5.48242,6.97461 -0.7098,-0.0693 -5.25126,-4.04256 -5.13672,-4.49414 0.0722,-0.28458 2.06228,-3.12747 4.42188,-6.3164 3.25899,-4.40443 4.12918,-5.8994 3.61914,-6.22266 -0.36929,-0.23405 -0.89688,-0.42955 -1.17188,-0.43555 -0.275,-0.006 -5.76939,-3.04034 -12.21093,-6.74218 l -11.7129,-6.73047 -4.20898,9.10937 c -2.31552,5.00943 -4.37514,9.28105 -4.57617,9.49414 -0.27521,0.29172 -5.48155,-1.65161 -6.44141,-2.40429 -0.0829,-0.065 1.90211,-4.5535 4.41016,-9.97461 2.50805,-5.42112 4.48799,-9.90786 4.40039,-9.97266 -0.0876,-0.0648 -4.09766,-2.32438 -8.91016,-5.01953 -4.8125,-2.69515 -9.43724,-5.31009 -10.27734,-5.8125 l -1.52734,-0.91406 -5.72266,7.71289 c -3.1474,4.24171 -5.92294,7.72037 -6.16797,7.73047 -0.6224,0.0255 -5.30469,-3.59665 -5.30469,-4.10352 0,-0.2282 2.3625,-3.54834 5.25,-7.37891 2.8875,-3.83058 5.2481,-7.14146 5.2461,-7.35742 -0.002,-0.21597 -1.56874,-1.24492 -3.48243,-2.28711 -1.91369,-1.04219 -3.5985,-2.08856 -3.74414,-2.32422 -0.14565,-0.23566 1.11446,-1.70424 2.79883,-3.26367 2.84049,-2.62979 3.02005,-2.92428 2.4961,-4.07422 -0.879,-1.92919 -0.67447,-5.25491 0.43359,-7.07226 2.67737,-4.39124 8.78721,-4.84359 11.9043,-0.88086 0.54511,0.69299 1.1075,1.25976 1.24804,1.25976 0.14054,0 0.84611,-1.00778 1.56836,-2.24023 1.57453,-2.68672 2.52726,-3.26375 5.37305,-3.24805 3.8816,0.0213 10.97495,3.68024 18.4082,9.49414 1.7875,1.39809 6.71524,5.14644 10.94922,8.33008 7.5511,5.6779 7.79673,5.8166 12.93555,7.24805 2.88138,0.80263 5.29317,1.393 5.35937,1.3125 0.28785,-0.35012 -4.60282,-39.45494 -5.79296,-46.31836 -0.87756,-5.06076 -2.97409,-14.70468 -3.72461,-17.13281 -0.13691,-0.44293 0.14909,-1.29053 0.63671,-1.88282 0.7897,-0.95924 2.06139,-1.21128 11.63672,-2.29883 5.9125,-0.67153 14.6875,-1.7024 19.5,-2.29101 4.8125,-0.5886 12.12564,-1.21685 16.25,-1.39649 L 312.24805,244 l -4.16406,-2.66797 c -2.29009,-1.46761 -4.07307,-2.75896 -3.96289,-2.86914 0.11018,-0.11018 4.50894,0.0388 9.77539,0.33203 5.26645,0.2932 9.92178,0.45955 10.3457,0.36915 0.57146,-0.1219 0.0541,-1.11392 -2,-3.83985 -5.93652,-7.87808 -10.99613,-17.85174 -14.69726,-28.96484 C 305.74458,200.95361 303,189.92708 303,188.09766 c 0,-0.42961 -0.44293,-0.91996 -0.98437,-1.0918 -1.50618,-0.47805 -2.00872,-3.26321 -2.01172,-11.13086 L 300,168.75 h -2.34179 c -4.29561,0 -30.93675,-5.40423 -38.15821,-7.74023 -8.38987,-2.71396 -11.62365,-3.53419 -16.91406,-4.29102 -2.63972,-0.37763 -4.26328,-0.84837 -4.43164,-1.28711 -0.27356,-0.71291 6.26361,-13.19438 11.17383,-21.33398 5.63858,-9.34699 9.69864,-13.98742 22.18164,-25.34766 6.52456,-5.93772 10.10334,-9.628561 12.76562,-13.169921 l 3.69922,-4.921875 -0.99023,-1.9375 c -0.95854,-1.8789 -2.46156,-7.369587 -2.47656,-9.044922 -0.006,-0.654845 0.71193,-0.896371 3.49414,-1.175781 3.78415,-0.380025 4.04538,-0.568272 4.47656,-3.232422 l 0.28516,-1.767578 3.61132,-0.421875 3.61133,-0.421875 0.53125,-2.078125 c 0.29227,-1.143105 0.61968,-2.342233 0.72656,-2.664063 0.10688,-0.321835 1.50132,-0.73407 3.09961,-0.916015 4.40834,-0.501825 4.61462,-0.625059 5.92579,-3.589844 l 1.2207,-2.759766 3.63086,0.357422 c 1.99642,0.19711 4.0789,0.59136 4.6289,0.875 0.55,0.28364 3.76277,2.534876 7.13868,5.003906 l 6.13671,4.488282 4.30079,-1.566406 4.30078,-1.566407 5.6875,3.330078 c 3.1274,1.830915 5.68554,3.472738 5.68554,3.648438 0,0.1757 -3.88125,1.076866 -8.625,2.003906 l -8.625,1.685547 -7,6.769531 -7,6.769532 -8.74609,1.777344 -8.74609,1.77539 -6.83985,16.652349 c -3.76261,9.159 -7.44865,17.45003 -8.1914,18.42382 -0.74274,0.97378 -2.71663,3.22847 -4.38477,5.01172 l -3.0332,3.24219 1.7207,-0.29492 c 14.45464,-2.48288 23.41206,-3.18781 29.4707,-2.31836 2.51188,0.36047 2.92317,0.27704 4.75,-0.96875 2.97735,-2.03038 6.73885,-3.83406 10.9336,-5.24219 5.92796,-1.98995 13.75997,-1.61093 25.3164,1.22461 2.0625,0.50606 6.21304,1.0728 9.22461,1.25977 4.83098,0.29991 5.65054,0.48629 6.95508,1.58398 0.98222,0.82649 1.84478,1.15279 2.57031,0.9707 0.60069,-0.15076 4.33486,-1.81592 8.29688,-3.69922 l 7.20312,-3.42382 -3.58007,-0.87891 c -2.27215,-0.5578 -4.89605,-0.81744 -7.18164,-0.71094 L 373.88868,127 l 0.29101,-2.45312 c 0.18537,-1.55947 0.70713,-2.89644 1.43164,-3.67188 1.10106,-1.17847 1.29424,-1.20705 5.76367,-0.875 3.71052,0.27567 4.62419,0.21074 4.61719,-0.32812 -0.005,-0.36941 -1.24234,-5.16464 -2.74804,-10.65625 l -2.73633,-9.984379 2.07617,-2.117187 2.07617,-2.115235 -0.31641,-9.794922 c -0.17333,-5.387335 -0.14089,-9.686277 0.0723,-9.554687 0.21292,0.131595 1.37349,3.52058 2.57813,7.53125 1.20463,4.010665 2.35366,7.23104 2.55273,7.15625 0.9636,-0.36199 14.92129,-14.035953 14.69727,-14.398438 -0.14174,-0.22933 0.20233,-0.563402 0.76562,-0.742187 0.5633,-0.17878 1.41086,-0.721092 1.88281,-1.207032 0.87376,-0.899665 63.98656,-26.325949 64.37696,-25.935547 z m 46.18945,65.937504 c 7.79714,-0.23608 15.08524,4.54025 17.63477,12.57031 2.714,8.54807 -1.41844,18.03079 -9.4961,21.79492 -2.26376,1.05489 -3.7198,1.35357 -7.09765,1.45117 -6.40229,0.18503 -10.3214,-1.47931 -14.40039,-6.11328 -5.17884,-5.88347 -5.63955,-15.55492 -1.04883,-21.99414 2.45681,-3.44609 3.12537,-4.02694 6.59765,-5.73633 2.55562,-1.25812 5.2115,-1.89396 7.81055,-1.97265 z M 201.98047,184.25781 C 216.53837,184.29071 228,195.63017 228,210 c 0,11.83649 -7.82245,22.02531 -19.25,25.07227 -3.13862,0.83686 -10.23805,0.79889 -13.40625,-0.0723 -4.25155,-1.16872 -7.99601,-3.40243 -11.42578,-6.81445 -5.09237,-5.06601 -7.40111,-10.74249 -7.41211,-18.2207 -0.0208,-14.15377 11.46037,-25.73874 25.47461,-25.70704 z M 554.5879,288.18555 c 7.1081,-0.46569 12.81802,1.27078 15.19922,5.33398 2.34345,3.99879 1.27197,10.6917 -2.62305,16.37891 -2.39223,3.49296 -7.65724,8.77743 -11.88477,11.92969 -5.0367,3.75562 -14.61647,8.51461 -20.52929,10.19726 -4.98299,1.41804 -13.18901,2.02619 -16.38282,1.21485 -3.08027,-0.78249 -5.71938,-2.36418 -7.21289,-4.32227 -1.28797,-1.68862 -1.40429,-2.19576 -1.40429,-6.15429 0,-3.88791 0.1628,-4.6343 1.64062,-7.53907 3.44223,-6.76597 10.71257,-13.87101 19.61133,-19.16406 7.9714,-4.74145 16.47783,-7.40931 23.58594,-7.875 z M 358.35157,315.4375 c 5.17997,0.3148 10.27229,2.03715 14.89648,5.11914 1.60444,1.06935 3.34524,2.19676 3.86719,2.50586 4.47244,2.64863 9.65793,11.61104 11.10156,19.1875 0.82251,4.31671 0.19316,13.46676 -1.2539,18.23243 -1.89505,6.24105 -5.78304,12.57689 -10.625,17.3125 -2.23135,2.18234 -7.44001,5.02036 -11.28516,6.15039 -3.92474,1.15342 -9.87666,1.46574 -12.30274,0.64453 -1.1,-0.37234 -3.575,-1.15855 -5.5,-1.74805 -8.40618,-2.57427 -16.56208,-10.66009 -20.01953,-19.8457 -1.5617,-4.14905 -2.86126,-11.56338 -2.74804,-15.67774 0.10403,-3.78025 1.54305,-9.72861 3,-12.40234 1.21601,-2.23156 4.26223,-6.51602 6.75,-9.49219 2.17495,-2.60193 8.29781,-6.73963 12.05273,-8.14453 2.25977,-0.84549 4.56186,-1.4061 6.87109,-1.68555 1.73193,-0.20958 3.46866,-0.26118 5.19532,-0.15625 z" />
    <path
       style="fill:#ffffff;fill-opacity:1;stroke:#000000;stroke-width:0.555591;stroke-dasharray:none;stroke-opacity:1"
       d="m 416.98391,194.23339 c 1.46317,-1.53132 4.31628,-4.42691 6.34025,-6.43463 l 3.67995,-3.6504 4.15425,0.66643 c 2.28484,0.36653 9.80227,1.53191 16.7054,2.58973 l 12.55114,1.92332 -15.99829,0.10577 -15.99829,0.10576 -1.14905,0.48603 c -3.31922,1.40399 -8.02112,3.92247 -11.2756,6.03955 -0.80547,0.52397 -1.51074,0.95268 -1.56727,0.95268 -0.0565,0 1.09435,-1.25291 2.55751,-2.78424 z"
       id="path153"
       transform="scale(0.26458333)" />
  </g>
</svg>
